<?xml version="1.0" encoding="UTF-8" standalone="no"?>
<!-- Created with Inkscape (http://www.inkscape.org/) -->

<svg
   xmlns:dc="http://purl.org/dc/elements/1.1/"
   xmlns:cc="http://creativecommons.org/ns#"
   xmlns:rdf="http://www.w3.org/1999/02/22-rdf-syntax-ns#"
   xmlns:svg="http://www.w3.org/2000/svg"
   xmlns="http://www.w3.org/2000/svg"
   xmlns:sodipodi="http://sodipodi.sourceforge.net/DTD/sodipodi-0.dtd"
   xmlns:inkscape="http://www.inkscape.org/namespaces/inkscape"
   width="207.82916mm"
   height="286.68533mm"
   viewBox="0 0 207.82916 286.68533"
   version="1.1"
   id="svg8"
   inkscape:version="0.92.3 (2405546, 2018-03-11)"
   sodipodi:docname="E-boiler_v1_w.svg">
  <defs
     id="defs2">
    <clipPath
       clipPathUnits="userSpaceOnUse"
       id="clipPath846">
      <rect
         style="opacity:1;fill:#002e4f;fill-opacity:1;stroke:none;stroke-width:15;stroke-linecap:round;stroke-linejoin:round;stroke-miterlimit:4;stroke-dasharray:none;stroke-dashoffset:0;stroke-opacity:1;paint-order:markers stroke fill"
         id="rect848"
         width="98.355186"
         height="179.07057"
         x="-58.264763"
         y="-68.090172"
         ry="1.5457435e-13" />
    </clipPath>
  </defs>
  <sodipodi:namedview
     id="base"
     pagecolor="#ffffff"
     bordercolor="#666666"
     borderopacity="1.0"
     inkscape:pageopacity="0.0"
     inkscape:pageshadow="2"
     inkscape:zoom="0.24748737"
     inkscape:cx="907.94781"
     inkscape:cy="188.42274"
     inkscape:document-units="mm"
     inkscape:current-layer="layer1"
     showgrid="false"
     inkscape:window-width="1920"
     inkscape:window-height="1031"
     inkscape:window-x="0"
     inkscape:window-y="25"
     inkscape:window-maximized="1"
     showguides="true"
     inkscape:guide-bbox="true"
     fit-margin-top="0"
     fit-margin-left="0"
     fit-margin-right="0"
     fit-margin-bottom="0">
    <sodipodi:guide
       position="112.5462,286.68533"
       orientation="0,1"
       id="guide840"
       inkscape:locked="false" />
    <sodipodi:guide
       position="295.48666,483.06347"
       orientation="1,0"
       id="guide880"
       inkscape:locked="false" />
    <sodipodi:guide
       position="345.73333,498.03057"
       orientation="1,0"
       id="guide882"
       inkscape:locked="false" />
    <sodipodi:guide
       position="395.98,449.92207"
       orientation="1,0"
       id="guide884"
       inkscape:locked="false" />
    <sodipodi:guide
       position="-709.44671,744.98762"
       orientation="1,0"
       id="guide829"
       inkscape:locked="false" />
  </sodipodi:namedview>
  <metadata
     id="metadata5">
    <rdf:RDF>
      <cc:Work
         rdf:about="">
        <dc:format>image/svg+xml</dc:format>
        <dc:type
           rdf:resource="http://purl.org/dc/dcmitype/StillImage" />
        <dc:title></dc:title>
      </cc:Work>
    </rdf:RDF>
  </metadata>
  <g
     inkscape:label="Ebene 1"
     inkscape:groupmode="layer"
     id="layer1"
     transform="translate(295.48667,76.440489)">
    <path
       style="opacity:1;fill:#ffffff;fill-opacity:1;stroke:none;stroke-width:6.07696867;stroke-linecap:round;stroke-linejoin:miter;stroke-miterlimit:4;stroke-dasharray:none;stroke-dashoffset:0;stroke-opacity:1;paint-order:markers stroke fill"
       d="m -268.3519,-76.440489 c -15.0327,0 -27.13477,12.102071 -27.13477,27.134777 V 183.11007 c 0,15.03271 12.10207,27.13478 27.13477,27.13478 h 153.55962 c 15.032707,0 27.134777,-12.10207 27.134777,-27.13478 V -49.305712 c 0,-15.032706 -12.10207,-27.134777 -27.134777,-27.134777 z m 43.58287,29.67364 a 6.9092825,6.9092825 0 0 1 2.67374,0.617016 c 0,0 11.85561,5.340157 11.85561,17.84749 0,4.217377 -2.05235,7.638707 -4.06642,9.996288 -2.01406,2.357582 -4.15761,4.082473 -6.00015,5.698877 -3.68507,3.2328103 -5.36298,5.1852612 -5.36298,7.3437381 0,1.079242 0.15942,1.4086636 0.91209,2.3559285 0.75267,0.9472658 2.24684,2.21760033 4.17545,3.73982332 1.92861,1.52222188 4.29141,3.29673648 6.43165,5.99033188 2.14025,2.6935961 3.91036,6.6004012 3.91036,10.9512692 0,8.701737 -6.0372,14.195853 -10.06657,17.730702 -2.01468,1.767422 -3.72862,3.25833 -4.60747,4.287075 -0.63187,0.739675 -0.74031,1.008618 -0.75448,1.053166 0.0205,3.758473 3.57291,5.157825 3.57291,5.157825 a 6.9092825,6.9092825 0 1 1 -5.53506,12.658142 c 0,0 -11.85561,-5.340667 -11.85561,-17.848005 1e-5,-4.217379 2.05236,-7.63819 4.06642,-9.995773 2.01407,-2.357583 4.15761,-4.082989 6.00015,-5.699394 3.68508,-3.232809 5.3635,-5.185259 5.3635,-7.343738 0,-1.07924 -0.15942,-1.408146 -0.91209,-2.355411 -0.75266,-0.947266 -2.2453,-2.218118 -4.17391,-3.740341 -1.92862,-1.522223 -4.29346,-3.2967346 -6.43371,-5.9903315 -2.14025,-2.6935959 -3.91035,-6.60039969 -3.91036,-10.9512694 1e-5,-8.7017381 6.03721,-14.1953371 10.06657,-17.7301841 2.01468,-1.767424 3.72862,-3.258331 4.60747,-4.287076 0.63385,-0.741984 0.7414,-1.010981 0.75499,-1.0542 -0.0208,-3.75806 -3.57342,-5.15679 -3.57342,-5.15679 a 6.9092825,6.9092825 0 0 1 2.86132,-13.275159 z m 33.28893,0 a 6.9092825,6.9092825 0 0 1 2.6758,0.617016 c 0,0 11.85561,5.340157 11.85561,17.84749 0,4.217378 -2.05236,7.638707 -4.06642,9.996288 -2.01407,2.357582 -4.15917,4.082473 -6.0017,5.698877 -3.68508,3.2328103 -5.36143,5.1852641 -5.36143,7.3437381 0,1.0792409 0.15942,1.4086636 0.91209,2.3559285 0.75266,0.9472659 2.24529,2.21760033 4.1739,3.73982332 1.92862,1.52222198 4.29295,3.29673628 6.4332,5.99033188 2.14025,2.6935961 3.91036,6.6003992 3.91036,10.9512692 0,8.70174 -6.03876,14.195853 -10.06812,17.730702 -2.01469,1.767422 -3.72707,3.25833 -4.60592,4.287075 -0.63188,0.739675 -0.74031,1.008618 -0.75448,1.053166 0.0205,3.758467 3.57291,5.157825 3.57291,5.157825 a 6.9092825,6.9092825 0 1 1 -5.53713,12.658142 c 0,0 -11.85354,-5.340659 -11.85354,-17.848005 0,-4.217379 2.05235,-7.63819 4.06642,-9.995773 2.01406,-2.357583 4.15761,-4.082989 6.00015,-5.699394 3.68507,-3.232809 5.36143,-5.185261 5.36143,-7.343738 0,-1.079239 -0.15735,-1.408146 -0.91002,-2.355411 -0.75267,-0.947266 -2.24736,-2.218118 -4.17597,-3.740341 -1.92861,-1.522223 -4.2914,-3.2967346 -6.43165,-5.9903315 -2.14025,-2.6935959 -3.91036,-6.6003986 -3.91036,-10.9512694 0,-8.7017401 6.0372,-14.1953371 10.06657,-17.7301841 2.01468,-1.767424 3.72862,-3.258331 4.60747,-4.287076 0.63183,-0.739621 0.73931,-1.008589 0.75293,-1.053166 -0.0201,-3.758851 -3.57343,-5.157824 -3.57343,-5.157824 a 6.9092825,6.9092825 0 0 1 2.86133,-13.275159 z m 33.29099,0 a 6.9092825,6.9092825 0 0 1 2.6758,0.617016 c 0,0 11.85561,5.340172 11.85561,17.84749 0,4.217374 -2.05442,7.638707 -4.06849,9.996288 -2.01406,2.357582 -4.1571,4.082472 -5.99963,5.698877 -3.68507,3.2328092 -5.36143,5.185258 -5.36143,7.3437381 0,1.0792438 0.15735,1.4086636 0.91002,2.3559285 0.75267,0.9472659 2.24736,2.21760033 4.17598,3.73982332 1.9286,1.52222198 4.2914,3.29673598 6.43164,5.99033188 2.14025,2.6935961 3.91191,6.6004022 3.91191,10.9512692 0,8.701735 -6.03876,14.195853 -10.06812,17.730702 -2.01468,1.767422 -3.72862,3.25833 -4.60747,4.287075 -0.63183,0.739622 -0.73931,1.008589 -0.75293,1.053166 0.0205,3.758467 3.57291,5.157825 3.57291,5.157825 a 6.9092825,6.9092825 0 1 1 -5.53713,12.658142 c 0,0 -11.85354,-5.340659 -11.85354,-17.848005 0,-4.217376 2.05236,-7.63819 4.06642,-9.995773 2.01407,-2.357583 4.15762,-4.082989 6.00015,-5.699394 3.68507,-3.232809 5.36143,-5.185255 5.36143,-7.343738 0,-1.079242 -0.15735,-1.408146 -0.91002,-2.355411 -0.75266,-0.947266 -2.24736,-2.218118 -4.17597,-3.740341 -1.9286,-1.522223 -4.2914,-3.2967346 -6.43165,-5.9903315 -2.14024,-2.6935959 -3.91036,-6.60040151 -3.91036,-10.9512694 0,-8.7017341 6.03721,-14.1953371 10.06657,-17.7301841 2.01468,-1.767424 3.72863,-3.258331 4.60747,-4.287076 0.63183,-0.739621 0.73931,-1.008589 0.75293,-1.053166 -0.0201,-3.758864 -3.57343,-5.157824 -3.57343,-5.157824 a 6.9092825,6.9092825 0 0 1 2.86133,-13.275159 z m -35.49293,125.636775 18.58491,0.115236 c 2.88538,0.01408 4.65238,2.829965 3.15899,5.033801 l -23.50296,34.651637 27.64069,-0.26976 c 2.96581,-0.0285 4.77196,2.90388 3.15639,5.12424 l -41.64345,57.20684 c -2.42494,3.31827 -8.14881,0.73476 -6.59236,-2.97553 l 17.78134,-42.1597 h -28.76827 c -2.81037,-1e-5 -4.6033,-2.67712 -3.27318,-4.88704 l 30.16611,-50.093062 c 0.65092,-1.080915 1.91706,-1.753063 3.29179,-1.746662 z"
       id="rect815"
       inkscape:connector-curvature="0" />
    <g
       id="g908"
       transform="translate(-0.10999847,21.274121)"
       style="fill:none;fill-opacity:1;stroke:#ffffff;stroke-opacity:1" />
  </g>
</svg>
