<?xml version="1.0" encoding="UTF-8" standalone="no"?>
<svg
   xmlns:dc="http://purl.org/dc/elements/1.1/"
   xmlns:cc="http://creativecommons.org/ns#"
   xmlns:rdf="http://www.w3.org/1999/02/22-rdf-syntax-ns#"
   xmlns:svg="http://www.w3.org/2000/svg"
   xmlns="http://www.w3.org/2000/svg"
   id="svg836"
   version="1.1"
   viewBox="0 0 19.103233 40.119145"
   height="40.119144mm"
   width="19.103233mm">
  <defs
     id="defs830" />
  <metadata
     id="metadata833">
    <rdf:RDF>
      <cc:Work
         rdf:about="">
        <dc:format>image/svg+xml</dc:format>
        <dc:type
           rdf:resource="http://purl.org/dc/dcmitype/StillImage" />
        <dc:title></dc:title>
      </cc:Work>
    </rdf:RDF>
  </metadata>
  <g
     transform="translate(-85.698383,-17.313322)"
     id="layer1">
    <path
       d="m 94.139425,44.867127 c -3.630261,-0.107855 -8.256826,-4.478047 -8.256826,-11.834839 0,-9.313599 10.506215,-15.919916 11.908367,-15.51276 1.44154,0.418595 -1.289672,6.229311 1.726856,9.267905 3.016788,3.038859 5.099578,7.204551 5.099578,9.603766 0,6.889142 -5.196585,8.515231 -6.985502,8.476192 -1.91662,-0.04182 1.564251,-2.553965 1.643777,-5.511324 -0.521996,-4.000132 -1.552416,-6.161497 -4.136337,-6.003343 -1.95856,0.119878 -3.552349,3.459057 -3.235298,6.17736 0.557429,3.359338 4.368096,5.400405 2.235385,5.337043 z"
       stroke-miterlimit="2.00000000000"
       id="shape5"
       style="fill:#002e4f;stroke:#002e4f;stroke-width:0.36856459;stroke-linecap:butt;stroke-linejoin:miter;stroke-miterlimit:2;stroke-dasharray:none;fill-opacity:1;stroke-opacity:1" />
    <path
       id="path1094"
       d="m 92.82604,49.343363 v 6.747344"
       style="fill:#002e4f;stroke:#002e4f;stroke-width:2.64583325;stroke-linecap:round;stroke-linejoin:miter;stroke-miterlimit:4;stroke-dasharray:none;stroke-opacity:1;fill-opacity:1" />
    <path
       style="fill:#002e4f;stroke:#002e4f;stroke-width:2.64583325;stroke-linecap:round;stroke-linejoin:miter;stroke-miterlimit:4;stroke-dasharray:none;stroke-opacity:1;fill-opacity:1"
       d="m 98.214922,49.343363 v 6.747344"
       id="path1096" />
  </g>
</svg>
