<?xml version="1.0" encoding="UTF-8" standalone="no"?>
<!-- Created with Inkscape (http://www.inkscape.org/) -->

<svg
   xmlns:dc="http://purl.org/dc/elements/1.1/"
   xmlns:cc="http://creativecommons.org/ns#"
   xmlns:rdf="http://www.w3.org/1999/02/22-rdf-syntax-ns#"
   xmlns:svg="http://www.w3.org/2000/svg"
   xmlns="http://www.w3.org/2000/svg"
   xmlns:sodipodi="http://sodipodi.sourceforge.net/DTD/sodipodi-0.dtd"
   xmlns:inkscape="http://www.inkscape.org/namespaces/inkscape"
   width="207.82918mm"
   height="286.68533mm"
   viewBox="0 0 207.82918 286.68533"
   version="1.1"
   id="svg8"
   inkscape:version="0.92.3 (2405546, 2018-03-11)"
   sodipodi:docname="Heatpump_v1_w.svg">
  <defs
     id="defs2">
    <clipPath
       clipPathUnits="userSpaceOnUse"
       id="clipPath846">
      <rect
         style="opacity:1;fill:#002e4f;fill-opacity:1;stroke:none;stroke-width:15;stroke-linecap:round;stroke-linejoin:round;stroke-miterlimit:4;stroke-dasharray:none;stroke-dashoffset:0;stroke-opacity:1;paint-order:markers stroke fill"
         id="rect848"
         width="98.355186"
         height="179.07057"
         x="-58.264763"
         y="-68.090172"
         ry="1.5457435e-13" />
    </clipPath>
  </defs>
  <sodipodi:namedview
     id="base"
     pagecolor="#ffffff"
     bordercolor="#666666"
     borderopacity="1.0"
     inkscape:pageopacity="0.0"
     inkscape:pageshadow="2"
     inkscape:zoom="0.12374369"
     inkscape:cx="641.56944"
     inkscape:cy="441.79466"
     inkscape:document-units="mm"
     inkscape:current-layer="layer1"
     showgrid="false"
     inkscape:window-width="1920"
     inkscape:window-height="1031"
     inkscape:window-x="0"
     inkscape:window-y="25"
     inkscape:window-maximized="1"
     showguides="false"
     inkscape:guide-bbox="true"
     fit-margin-top="0"
     fit-margin-left="0"
     fit-margin-right="0"
     fit-margin-bottom="0">
    <sodipodi:guide
       position="-256.29903,427.26941"
       orientation="0,1"
       id="guide840"
       inkscape:locked="false" />
    <sodipodi:guide
       position="-73.358561,623.64755"
       orientation="1,0"
       id="guide880"
       inkscape:locked="false" />
    <sodipodi:guide
       position="-23.111891,638.61465"
       orientation="1,0"
       id="guide882"
       inkscape:locked="false" />
    <sodipodi:guide
       position="27.134777,590.50615"
       orientation="1,0"
       id="guide884"
       inkscape:locked="false" />
  </sodipodi:namedview>
  <metadata
     id="metadata5">
    <rdf:RDF>
      <cc:Work
         rdf:about="">
        <dc:format>image/svg+xml</dc:format>
        <dc:type
           rdf:resource="http://purl.org/dc/dcmitype/StillImage" />
        <dc:title></dc:title>
      </cc:Work>
    </rdf:RDF>
  </metadata>
  <g
     inkscape:label="Ebene 1"
     inkscape:groupmode="layer"
     id="layer1"
     transform="translate(-73.358562,-64.143604)">
    <path
       style="opacity:1;fill:#ffffff;fill-opacity:1;stroke:none;stroke-width:6.07696867;stroke-linecap:round;stroke-linejoin:miter;stroke-miterlimit:4;stroke-dasharray:none;stroke-dashoffset:0;stroke-opacity:1;paint-order:markers stroke fill"
       d="m 100.49334,64.143604 c -15.032696,0 -27.134778,12.102072 -27.134778,27.134778 V 323.69417 c 0,15.0327 12.102082,27.13476 27.134778,27.13476 h 153.55961 c 15.03272,0 27.13479,-12.10206 27.13479,-27.13476 V 91.278382 c 0,-15.032706 -12.10207,-27.134778 -27.13479,-27.134778 z m 43.58287,29.673641 a 6.9092825,6.9092825 0 0 1 2.67374,0.617016 c 0,0 11.85562,5.340158 11.85562,17.847489 0,4.21738 -2.05238,7.63871 -4.06644,9.99629 -2.01405,2.35758 -4.1576,4.08247 -6.00014,5.69888 -3.68507,3.23281 -5.36298,5.18526 -5.36298,7.34374 0,1.07924 0.15942,1.40866 0.91208,2.35592 0.75268,0.94727 2.24684,2.2176 4.17546,3.73983 1.9286,1.52222 4.2914,3.29673 6.43166,5.99033 2.14024,2.69359 3.91036,6.6004 3.91036,10.95127 0,8.70173 -6.03721,14.19585 -10.06658,17.7307 -2.01468,1.76742 -3.72863,3.25833 -4.60747,4.28708 -0.63187,0.73968 -0.74031,1.00861 -0.75448,1.05316 0.0205,3.75847 3.57291,5.15783 3.57291,5.15782 a 6.9092825,6.9092825 0 1 1 -5.53506,12.65815 c 0,0 -11.85561,-5.34067 -11.85561,-17.84801 10e-6,-4.21738 2.05236,-7.63819 4.06642,-9.99577 2.01407,-2.35759 4.15761,-4.08299 6.00015,-5.69939 3.68508,-3.23281 5.36349,-5.18526 5.36349,-7.34374 0,-1.07924 -0.15942,-1.40815 -0.91208,-2.35541 -0.75266,-0.94727 -2.2453,-2.21812 -4.17391,-3.74034 -1.92862,-1.52223 -4.29347,-3.29674 -6.43372,-5.99034 -2.14024,-2.69359 -3.91034,-6.6004 -3.91035,-10.95126 10e-6,-8.70174 6.03721,-14.19534 10.06657,-17.73019 2.01468,-1.76742 3.72862,-3.25833 4.60747,-4.28708 0.63385,-0.74198 0.74141,-1.01098 0.75499,-1.05419 -0.0208,-3.75806 -3.57342,-5.1568 -3.57342,-5.1568 a 6.9092825,6.9092825 0 0 1 2.86132,-13.275155 z m 33.28892,0 a 6.9092825,6.9092825 0 0 1 2.67581,0.617016 c 0,0 11.85561,5.340158 11.85561,17.847489 0,4.21738 -2.05237,7.63871 -4.06643,9.99629 -2.01406,2.35758 -4.15917,4.08247 -6.0017,5.69888 -3.68507,3.23281 -5.36141,5.18526 -5.36141,7.34374 0,1.07924 0.15941,1.40866 0.91207,2.35592 0.75266,0.94727 2.24528,2.2176 4.17391,3.73983 1.92862,1.52222 4.29297,3.29673 6.43321,5.99033 2.14024,2.69359 3.91035,6.6004 3.91035,10.95127 0,8.70174 -6.03877,14.19585 -10.06813,17.7307 -2.01467,1.76742 -3.72706,3.25833 -4.60592,4.28708 -0.63188,0.73968 -0.74031,1.00861 -0.75446,1.05316 0.0205,3.75847 3.5729,5.15783 3.5729,5.15782 a 6.9092825,6.9092825 0 1 1 -5.53714,12.65815 c 0,0 -11.85352,-5.34066 -11.85352,-17.84801 0,-4.21738 2.05235,-7.63819 4.06641,-9.99577 2.01406,-2.35759 4.15761,-4.08299 6.00014,-5.69939 3.68509,-3.23281 5.36144,-5.18527 5.36144,-7.34374 0,-1.07924 -0.15735,-1.40815 -0.91001,-2.35541 -0.75269,-0.94727 -2.24737,-2.21812 -4.17597,-3.74034 -1.92863,-1.52223 -4.29141,-3.29674 -6.43165,-5.99034 -2.14027,-2.69359 -3.91036,-6.6004 -3.91036,-10.95126 0,-8.70175 6.03718,-14.19534 10.06655,-17.73019 2.01469,-1.76742 3.72864,-3.25833 4.60748,-4.28708 0.63182,-0.73962 0.7393,-1.00859 0.75292,-1.05316 -0.0201,-3.75885 -3.57343,-5.15783 -3.57343,-5.15783 a 6.9092825,6.9092825 0 0 1 2.86133,-13.275155 z m 33.29099,0 a 6.9092825,6.9092825 0 0 1 2.67581,0.617016 c 0,0 11.85561,5.340174 11.85561,17.847489 0,4.21738 -2.05441,7.63871 -4.0685,9.99629 -2.01406,2.35758 -4.15708,4.08247 -5.99961,5.69888 -3.68509,3.23281 -5.36144,5.18525 -5.36144,7.34374 0,1.07924 0.15735,1.40866 0.91001,2.35592 0.75269,0.94727 2.24737,2.2176 4.17597,3.73983 1.9286,1.52222 4.29141,3.29673 6.43165,5.99033 2.14027,2.69359 3.91192,6.6004 3.91192,10.95127 0,8.70173 -6.03877,14.19585 -10.06811,17.7307 -2.0147,1.76742 -3.72864,3.25833 -4.60748,4.28708 -0.63183,0.73963 -0.73933,1.00858 -0.75293,1.05316 0.0205,3.75847 3.57291,5.15783 3.57291,5.15782 a 6.9092825,6.9092825 0 1 1 -5.53712,12.65815 c 0,0 -11.85354,-5.34066 -11.85354,-17.84801 0,-4.21737 2.05234,-7.63819 4.0664,-9.99577 2.01409,-2.35759 4.15764,-4.08299 6.00017,-5.69939 3.68506,-3.23281 5.36141,-5.18526 5.36141,-7.34374 0,-1.07925 -0.15735,-1.40815 -0.91001,-2.35541 -0.75266,-0.94727 -2.24737,-2.21812 -4.17597,-3.74034 -1.9286,-1.52223 -4.29141,-3.29674 -6.43165,-5.99034 -2.14024,-2.69359 -3.91035,-6.6004 -3.91035,-10.95126 0,-8.70174 6.0372,-14.19534 10.06657,-17.73019 2.01467,-1.76742 3.72862,-3.25833 4.60745,-4.28708 0.63183,-0.73962 0.7393,-1.00859 0.75293,-1.05316 -0.0201,-3.75887 -3.57341,-5.15783 -3.57341,-5.15783 a 6.9092825,6.9092825 0 0 1 2.86131,-13.275155 z M 182.08422,216.9658 c 0.0844,-0.002 0.16954,-0.002 0.25529,5.2e-4 0.27834,0.009 0.55526,0.0456 0.8263,0.10955 l 35.92959,8.45323 c 3.18384,0.74921 4.30882,4.70254 1.99626,7.01559 l -7.71528,7.71529 c 7.63177,8.1417 12.30313,19.08136 12.30313,31.06788 0,20.94445 -14.25784,38.69751 -33.66204,43.90016 a 7.5007498,7.5007498 0 0 1 -9.44129,-7.24401 v -1.03508 a 7.5007498,7.5007498 0 0 1 5.50561,-7.23056 c 12.43415,-3.42746 21.59765,-14.76257 21.59765,-28.39051 0,-7.63986 -2.8806,-14.55883 -7.60212,-19.76882 l -8.46047,8.45994 c -2.31304,2.31258 -6.26637,1.18811 -7.01559,-1.99574 l -8.45478,-35.92804 c -0.60908,-2.58906 1.32156,-5.0552 3.93774,-5.1294 z m -21.70875,0.062 a 7.5007498,7.5007498 0 0 1 7.72097,7.49618 v 1.03508 a 7.5007498,7.5007498 0 0 1 -5.50559,7.23057 c -12.43417,3.42746 -21.59766,14.76256 -21.59766,28.39051 0,7.63985 2.88061,14.55882 7.60212,19.76882 l 8.46046,-8.45995 c 2.31304,-2.31258 6.26639,-1.1881 7.01561,1.99575 l 8.45476,35.92804 c 0.60907,2.58906 -1.32156,5.0552 -3.93774,5.1294 -0.0844,0.002 -0.16946,0.002 -0.25527,-5.2e-4 -0.27834,-0.009 -0.55528,-0.0457 -0.82632,-0.10955 l -35.92958,-8.45323 c -3.18383,-0.7492 -4.30882,-4.70254 -1.99626,-7.01559 l 7.71529,-7.7153 c -7.63178,-8.1417 -12.30312,-19.08136 -12.30312,-31.06787 0,-20.94445 14.25781,-38.69752 33.66204,-43.90016 a 7.5007498,7.5007498 0 0 1 1.72029,-0.25218 z"
       id="rect815"
       inkscape:connector-curvature="0" />
    <g
       id="g899"
       transform="translate(640.94601,148.2141)"
       style="fill:#ffffff;fill-opacity:1;stroke:#ffffff;stroke-opacity:1" />
    <g
       id="g908"
       transform="translate(-0.10999847,21.274121)"
       style="fill:none;fill-opacity:1;stroke:#ffffff;stroke-opacity:1" />
  </g>
</svg>
