<?xml version="1.0" encoding="UTF-8" standalone="no"?>
<svg
   xmlns:dc="http://purl.org/dc/elements/1.1/"
   xmlns:cc="http://creativecommons.org/ns#"
   xmlns:rdf="http://www.w3.org/1999/02/22-rdf-syntax-ns#"
   xmlns:svg="http://www.w3.org/2000/svg"
   xmlns="http://www.w3.org/2000/svg"
   width="84.22245mm"
   height="101.69118mm"
   viewBox="0 0 84.22245 101.69119"
   version="1.1"
   id="svg845">
  <defs
     id="defs839" />
  <metadata
     id="metadata842">
    <rdf:RDF>
      <cc:Work
         rdf:about="">
        <dc:format>image/svg+xml</dc:format>
        <dc:type
           rdf:resource="http://purl.org/dc/dcmitype/StillImage" />
        <dc:title></dc:title>
      </cc:Work>
    </rdf:RDF>
  </metadata>
  <g
     id="layer1"
     transform="translate(-63.975816,-87.347628)">
    <path
       id="rect863"
       d="m 129.54682,137.26494 c -1.77929,-1.02727 -4.04416,-0.41294 -5.07771,1.37722 l -20.27318,35.11418 c -1.03355,1.79015 -0.43287,4.05831 1.34641,5.08558 l 2.38669,1.37795 12.11037,-20.97578 c 0.47922,-0.83003 1.53335,-1.11249 2.36339,-0.63327 l 0.18752,0.10826 c 0.83004,0.47923 1.11249,1.53336 0.63327,2.3634 l -12.11037,20.97578 11.229,6.48307 c 1.77928,1.02727 4.04345,0.41313 5.077,-1.37703 l 20.27318,-35.11418 c 1.03355,-1.79015 0.43358,-4.0585 -1.3457,-5.08577 l -2.40683,-1.38958 -15.78689,27.3437 c -0.47922,0.83004 -1.53335,1.1125 -2.36339,0.63327 l -0.18752,-0.10826 c -0.83004,-0.47922 -1.11249,-1.53336 -0.63327,-2.3634 l 15.78689,-27.3437 z"
       style="opacity:1;fill:#ffffff;fill-opacity:1;stroke:none;stroke-width:4.14867783;stroke-linecap:round;stroke-linejoin:round;stroke-miterlimit:4;stroke-dasharray:none;stroke-dashoffset:0;stroke-opacity:1;paint-order:markers stroke fill" />
    <path
       id="rect845"
       d="m 67.684118,123.97214 c -2.054542,0 -3.708302,1.54336 -3.708302,3.46026 v 51.03616 c 0,1.91689 1.65376,3.46025 3.708302,3.46025 h 1.698088 v -38.49377 c 0,-0.95845 0.77116,-1.72961 1.729611,-1.72961 h 0.216524 c 0.958448,0 1.730126,0.77116 1.730126,1.72961 v 38.49377 h 14.024468 c 2.054542,0 3.708299,-1.54336 3.708299,-3.46025 V 127.4324 c 0,-1.9169 -1.653757,-3.46026 -3.708299,-3.46026 h -1.914097 v 33.51992 c 0,0.95844 -0.771678,1.72961 -1.730126,1.72961 h -0.216524 c -0.958448,0 -1.729611,-0.77117 -1.729611,-1.72961 v -33.51992 z"
       style="opacity:1;fill:#ffffff;fill-opacity:1;stroke:none;stroke-width:4.55827618;stroke-linecap:round;stroke-linejoin:round;stroke-miterlimit:4;stroke-dasharray:none;stroke-dashoffset:0;stroke-opacity:1;paint-order:markers stroke fill" />
    <path
       id="rect855"
       d="m 68.387034,108.86117 c -0.531755,1.98454 0.58099,3.99533 2.494746,4.50812 l 64.94819,17.40281 c 1.91375,0.51279 3.88232,-0.67237 4.41407,-2.6569 l 0.21547,-0.80414 -40.732635,-10.91428 c -0.92578,-0.24806 -1.47145,-1.19318 -1.22338,-2.11897 l 0.056,-0.20914 c 0.24806,-0.92579 1.19318,-1.47145 2.118965,-1.22339 l 40.73263,10.91428 2.63056,-9.8174 -29.87049,-8.00378 c -0.92579,-0.24806 -1.47145,-1.19317 -1.22338,-2.11896 l 0.0559,-0.20865 c 0.24807,-0.92579 1.19318,-1.47144 2.11897,-1.22338 l 29.87049,8.00377 0.27151,-1.01328 c 0.53175,-1.98454 -0.58049,-3.99519 -2.49425,-4.50798 L 77.822255,87.467081 c -1.913756,-0.51279 -3.882817,0.67224 -4.414571,2.65677 l -2.118576,7.90663 20.820796,5.578919 c 0.925784,0.24806 1.471582,1.19267 1.223517,2.11846 l -0.05604,0.20915 c -0.248065,0.92579 -1.19318,1.47145 -2.118964,1.22338 l -20.820795,-5.57891 z"
       style="opacity:1;fill:#ffffff;fill-opacity:1;stroke:none;stroke-width:5.16431236;stroke-linecap:round;stroke-linejoin:round;stroke-miterlimit:4;stroke-dasharray:none;stroke-dashoffset:0;stroke-opacity:1;paint-order:markers stroke fill" />
  </g>
</svg>
