<?xml version="1.0" encoding="UTF-8" standalone="no"?>
<svg
   xmlns:dc="http://purl.org/dc/elements/1.1/"
   xmlns:cc="http://creativecommons.org/ns#"
   xmlns:rdf="http://www.w3.org/1999/02/22-rdf-syntax-ns#"
   xmlns:svg="http://www.w3.org/2000/svg"
   xmlns="http://www.w3.org/2000/svg"
   width="81.666847mm"
   height="118.68423mm"
   viewBox="0 0 81.666847 118.68423"
   version="1.1"
   id="svg8"
   style="enable-background:new">
  <defs
     id="defs2" />
  <metadata
     id="metadata5">
    <rdf:RDF>
      <cc:Work
         rdf:about="">
        <dc:format>image/svg+xml</dc:format>
        <dc:type
           rdf:resource="http://purl.org/dc/dcmitype/StillImage" />
        <dc:title></dc:title>
      </cc:Work>
    </rdf:RDF>
  </metadata>
  <g
     style="fill:#002e4f;fill-opacity:1"
     id="layer1"
     transform="translate(-89.393508,-34.398418)">
    <path
       style="fill:#002e4f;fill-opacity:1;stroke:none;stroke-width:0.9046669px;stroke-linecap:butt;stroke-linejoin:miter;stroke-opacity:1"
       d="m 549.48438,130.00977 -211.61915,92.85742 v 355.71289 h 131.14063 v -71.06055 h 38 v 71.06055 h 139.52148 v -300 H 549.48438 Z M 374.52734,241.91406 h 38 v 38 h -38 z m 94.47852,0 h 38 v 38 h -38 z m -94.47852,86.66602 h 38 v 38 h -38 z m 94.47852,0 h 38 v 38 h -38 z m 94.47852,0 h 38 v 38 h -38 z m -188.95704,86.66797 h 38 v 38 h -38 z m 94.47852,0 h 38 v 38 h -38 z m 94.47852,0 h 38 v 38 h -38 z m -188.95704,86.66601 h 38 v 38 h -38 z m 188.95704,0 h 38 v 38 h -38 z"
       transform="scale(0.26458333)"
       id="path829" />
    <g
       style="fill:#002e4f;fill-opacity:1"
       transform="translate(-227.473,-12.913161)"
       id="g868" />
  </g>
</svg>
