<?xml version="1.0" encoding="UTF-8" standalone="no"?>
<!-- Created with Inkscape (http://www.inkscape.org/) -->

<svg
   xmlns:dc="http://purl.org/dc/elements/1.1/"
   xmlns:cc="http://creativecommons.org/ns#"
   xmlns:rdf="http://www.w3.org/1999/02/22-rdf-syntax-ns#"
   xmlns:svg="http://www.w3.org/2000/svg"
   xmlns="http://www.w3.org/2000/svg"
   xmlns:sodipodi="http://sodipodi.sourceforge.net/DTD/sodipodi-0.dtd"
   xmlns:inkscape="http://www.inkscape.org/namespaces/inkscape"
   width="352.992mm"
   height="325.56311mm"
   viewBox="0 0 352.992 325.56311"
   version="1.1"
   id="svg834"
   inkscape:version="0.92.3 (2405546, 2018-03-11)"
   sodipodi:docname="PV_Heatpump_Boiler_w.svg">
  <defs
     id="defs828" />
  <sodipodi:namedview
     id="base"
     pagecolor="#ffffff"
     bordercolor="#666666"
     borderopacity="1.0"
     inkscape:pageopacity="0.0"
     inkscape:pageshadow="2"
     inkscape:zoom="0.030935922"
     inkscape:cx="-2210.1424"
     inkscape:cy="1567.4377"
     inkscape:document-units="mm"
     inkscape:current-layer="layer1"
     showgrid="false"
     fit-margin-top="0"
     fit-margin-left="0"
     fit-margin-right="0"
     fit-margin-bottom="0"
     inkscape:window-width="1920"
     inkscape:window-height="1031"
     inkscape:window-x="0"
     inkscape:window-y="25"
     inkscape:window-maximized="1" />
  <metadata
     id="metadata831">
    <rdf:RDF>
      <cc:Work
         rdf:about="">
        <dc:format>image/svg+xml</dc:format>
        <dc:type
           rdf:resource="http://purl.org/dc/dcmitype/StillImage" />
        <dc:title></dc:title>
      </cc:Work>
    </rdf:RDF>
  </metadata>
  <g
     inkscape:label="Ebene 1"
     inkscape:groupmode="layer"
     id="layer1"
     transform="translate(684.02481,-777.51558)">
    <path
       style="opacity:1;fill:#ffffff;fill-opacity:1;stroke:none;stroke-width:12.27959728;stroke-linecap:round;stroke-linejoin:round;stroke-miterlimit:4;stroke-dasharray:none;stroke-dashoffset:0;stroke-opacity:1;paint-order:markers stroke fill"
       d="m -658.3225,953.07844 c -14.23911,0 -25.70231,11.46319 -25.70231,25.70231 v 98.59565 c 0,14.2391 11.4632,25.7023 25.70231,25.7023 h 98.59553 c 14.23912,0 25.7023,-11.4632 25.7023,-25.7023 v -98.59565 c 0,-14.23912 -11.46318,-25.70231 -25.7023,-25.70231 z m 56.24721,25.74314 c 0.0844,-0.002 0.16901,-0.002 0.25476,5.1e-4 0.27835,0.009 0.55526,0.0451 0.82631,0.10904 l 35.92959,8.45323 c 3.18385,0.74921 4.30883,4.70254 1.99626,7.01559 l -7.71529,7.71535 c 7.63178,8.1417 12.30312,19.0814 12.30312,31.0679 0,20.9445 -14.25783,38.698 -33.66203,43.9007 a 7.5007498,7.5007498 0 0 1 -9.44128,-7.2445 v -1.0351 a 7.5007498,7.5007498 0 0 1 5.50561,-7.2307 c 12.43414,-3.4274 21.59765,-14.7625 21.59765,-28.3905 0,-7.6397 -2.88061,-14.5588 -7.60212,-19.7688 l -8.46047,8.4605 c -2.31305,2.3125 -6.26638,1.1876 -7.01559,-1.9963 l -8.45478,-35.92752 c -0.60909,-2.58906 1.32207,-5.0552 3.93826,-5.1294 z m -22.11028,0.002 a 7.5007498,7.5007498 0 0 1 7.72097,7.49619 v 1.03508 a 7.5007498,7.5007498 0 0 1 -5.50819,7.22849 c -12.43419,3.42746 -21.59764,14.76466 -21.59764,28.39256 0,7.6408 2.8818,14.5598 7.60418,19.7695 l 8.46047,-8.4605 c 0.82362,-0.8232 1.95356,-1.2653 3.11712,-1.219 1.87352,0.074 3.4679,1.3883 3.89847,3.2132 l 8.45323,35.9296 c 0.70953,3.0179 -2.00194,5.7289 -5.01985,5.0193 l -35.92752,-8.4527 c -3.18385,-0.7492 -4.30883,-4.7031 -1.99626,-7.0162 l 7.71426,-7.7143 c -7.63222,-8.1417 -12.30416,-19.082 -12.30416,-31.0689 0,-20.9445 14.25831,-38.69749 33.66255,-43.90014 a 7.5007498,7.5007498 0 0 1 1.72237,-0.25218 z"
       id="rect1394"
       inkscape:connector-curvature="0" />
    <g
       style="fill:#ffffff;fill-opacity:1;stroke:#ffffff;stroke-opacity:1"
       transform="translate(-163.29249,200.63133)"
       id="g1402">
      <g
         style="fill:#ffffff;fill-opacity:1;stroke:#ffffff;stroke-opacity:1"
         id="g1400" />
    </g>
    <g
       transform="matrix(0.87178201,0,0,0.87178201,-595.85866,716.18096)"
       id="layer1-8"
       style="fill:#ffffff">
      <g
         transform="matrix(0.97395458,0,0,0.97395458,1.0163274,5.9973714)"
         id="g881"
         style="fill:#ffffff">
        <g
           id="g829"
           transform="translate(-0.53453905,1.6148885e-5)"
           style="fill:#ffffff">
          <path
             inkscape:connector-curvature="0"
             id="rect815"
             d="m 57.118566,66.079124 h 41.098278 v 0 L 80.654167,98.151466 v 0 H 39.555889 v 0 z"
             style="opacity:1;fill:#ffffff;fill-opacity:1;stroke:none;stroke-width:1.32445633;stroke-linecap:round;stroke-linejoin:miter;stroke-miterlimit:4;stroke-dasharray:none;stroke-dashoffset:0;stroke-opacity:1;paint-order:markers stroke fill" />
          <path
             inkscape:connector-curvature="0"
             id="rect819"
             d="m 110.03883,66.079124 h 41.09828 v 0 l -17.56268,32.072342 v 0 H 92.476151 v 0 z"
             style="opacity:1;fill:#ffffff;fill-opacity:1;stroke:none;stroke-width:1.32445633;stroke-linecap:round;stroke-linejoin:miter;stroke-miterlimit:4;stroke-dasharray:none;stroke-dashoffset:0;stroke-opacity:1;paint-order:markers stroke fill" />
          <path
             inkscape:connector-curvature="0"
             id="rect821"
             d="m 162.9591,66.079124 h 41.09828 v 0 L 186.4947,98.151466 v 0 h -41.09828 v 0 z"
             style="opacity:1;fill:#ffffff;fill-opacity:1;stroke:none;stroke-width:1.32445633;stroke-linecap:round;stroke-linejoin:miter;stroke-miterlimit:4;stroke-dasharray:none;stroke-dashoffset:0;stroke-opacity:1;paint-order:markers stroke fill" />
          <path
             inkscape:connector-curvature="0"
             id="rect823"
             d="m 215.87935,66.079124 h 41.09827 v 0 l -17.56268,32.072342 v 0 h -41.09827 v 0 z"
             style="opacity:1;fill:#ffffff;fill-opacity:1;stroke:none;stroke-width:1.32445633;stroke-linecap:round;stroke-linejoin:miter;stroke-miterlimit:4;stroke-dasharray:none;stroke-dashoffset:0;stroke-opacity:1;paint-order:markers stroke fill" />
        </g>
        <g
           id="g849"
           transform="translate(-0.53453905,88.076282)"
           style="fill:#ffffff" />
        <g
           transform="translate(-22.443762,39.67881)"
           id="g910"
           style="fill:#ffffff">
          <path
             inkscape:connector-curvature="0"
             style="opacity:1;fill:#ffffff;fill-opacity:1;stroke:none;stroke-width:1.32445633;stroke-linecap:round;stroke-linejoin:miter;stroke-miterlimit:4;stroke-dasharray:none;stroke-dashoffset:0;stroke-opacity:1;paint-order:markers stroke fill"
             d="m 57.118566,66.079124 h 41.098278 v 0 L 80.654167,98.151466 v 0 H 39.555889 v 0 z"
             id="path902" />
          <path
             inkscape:connector-curvature="0"
             style="opacity:1;fill:#ffffff;fill-opacity:1;stroke:none;stroke-width:1.32445633;stroke-linecap:round;stroke-linejoin:miter;stroke-miterlimit:4;stroke-dasharray:none;stroke-dashoffset:0;stroke-opacity:1;paint-order:markers stroke fill"
             d="m 110.03883,66.079124 h 41.09828 v 0 l -17.56268,32.072342 v 0 H 92.476151 v 0 z"
             id="path904" />
          <path
             inkscape:connector-curvature="0"
             style="opacity:1;fill:#ffffff;fill-opacity:1;stroke:none;stroke-width:1.32445633;stroke-linecap:round;stroke-linejoin:miter;stroke-miterlimit:4;stroke-dasharray:none;stroke-dashoffset:0;stroke-opacity:1;paint-order:markers stroke fill"
             d="m 162.9591,66.079124 h 41.09828 v 0 L 186.4947,98.151466 v 0 h -41.09828 v 0 z"
             id="path906" />
          <path
             inkscape:connector-curvature="0"
             style="opacity:1;fill:#ffffff;fill-opacity:1;stroke:none;stroke-width:1.32445633;stroke-linecap:round;stroke-linejoin:miter;stroke-miterlimit:4;stroke-dasharray:none;stroke-dashoffset:0;stroke-opacity:1;paint-order:markers stroke fill"
             d="m 215.87935,66.079124 h 41.09827 v 0 l -17.56268,32.072342 v 0 h -41.09827 v 0 z"
             id="path908" />
        </g>
        <g
           transform="translate(-43.809667,79.900922)"
           id="g920"
           style="fill:#ffffff">
          <path
             inkscape:connector-curvature="0"
             style="opacity:1;fill:#ffffff;fill-opacity:1;stroke:none;stroke-width:1.32445633;stroke-linecap:round;stroke-linejoin:miter;stroke-miterlimit:4;stroke-dasharray:none;stroke-dashoffset:0;stroke-opacity:1;paint-order:markers stroke fill"
             d="m 57.118566,66.079124 h 41.098278 v 0 L 80.654167,98.151466 v 0 H 39.555889 v 0 z"
             id="path912" />
          <path
             inkscape:connector-curvature="0"
             style="opacity:1;fill:#ffffff;fill-opacity:1;stroke:none;stroke-width:1.32445633;stroke-linecap:round;stroke-linejoin:miter;stroke-miterlimit:4;stroke-dasharray:none;stroke-dashoffset:0;stroke-opacity:1;paint-order:markers stroke fill"
             d="m 110.03883,66.079124 h 41.09828 v 0 l -17.56268,32.072342 v 0 H 92.476151 v 0 z"
             id="path914" />
          <path
             inkscape:connector-curvature="0"
             style="opacity:1;fill:#ffffff;fill-opacity:1;stroke:none;stroke-width:1.32445633;stroke-linecap:round;stroke-linejoin:miter;stroke-miterlimit:4;stroke-dasharray:none;stroke-dashoffset:0;stroke-opacity:1;paint-order:markers stroke fill"
             d="m 162.9591,66.079124 h 41.09828 v 0 L 186.4947,98.151466 v 0 h -41.09828 v 0 z"
             id="path916" />
          <path
             inkscape:connector-curvature="0"
             style="opacity:1;fill:#ffffff;fill-opacity:1;stroke:none;stroke-width:1.32445633;stroke-linecap:round;stroke-linejoin:miter;stroke-miterlimit:4;stroke-dasharray:none;stroke-dashoffset:0;stroke-opacity:1;paint-order:markers stroke fill"
             d="m 215.87935,66.079124 h 41.09827 v 0 l -17.56268,32.072342 v 0 h -41.09827 v 0 z"
             id="path918" />
        </g>
        <g
           id="g930"
           transform="translate(-65.71889,119.57975)"
           style="fill:#ffffff">
          <path
             inkscape:connector-curvature="0"
             id="path922"
             d="m 57.118566,66.079124 h 41.098278 v 0 L 80.654167,98.151466 v 0 H 39.555889 v 0 z"
             style="opacity:1;fill:#ffffff;fill-opacity:1;stroke:none;stroke-width:1.32445633;stroke-linecap:round;stroke-linejoin:miter;stroke-miterlimit:4;stroke-dasharray:none;stroke-dashoffset:0;stroke-opacity:1;paint-order:markers stroke fill" />
          <path
             inkscape:connector-curvature="0"
             id="path924"
             d="m 110.03883,66.079124 h 41.09828 v 0 l -17.56268,32.072342 v 0 H 92.476151 v 0 z"
             style="opacity:1;fill:#ffffff;fill-opacity:1;stroke:none;stroke-width:1.32445633;stroke-linecap:round;stroke-linejoin:miter;stroke-miterlimit:4;stroke-dasharray:none;stroke-dashoffset:0;stroke-opacity:1;paint-order:markers stroke fill" />
          <path
             inkscape:connector-curvature="0"
             id="path926"
             d="m 162.9591,66.079124 h 41.09828 v 0 L 186.4947,98.151466 v 0 h -41.09828 v 0 z"
             style="opacity:1;fill:#ffffff;fill-opacity:1;stroke:none;stroke-width:1.32445633;stroke-linecap:round;stroke-linejoin:miter;stroke-miterlimit:4;stroke-dasharray:none;stroke-dashoffset:0;stroke-opacity:1;paint-order:markers stroke fill" />
          <path
             inkscape:connector-curvature="0"
             id="path928"
             d="m 215.87935,66.079124 h 41.09827 v 0 l -17.56268,32.072342 v 0 h -41.09827 v 0 z"
             style="opacity:1;fill:#ffffff;fill-opacity:1;stroke:none;stroke-width:1.32445633;stroke-linecap:round;stroke-linejoin:miter;stroke-miterlimit:4;stroke-dasharray:none;stroke-dashoffset:0;stroke-opacity:1;paint-order:markers stroke fill" />
        </g>
      </g>
    </g>
    <path
       style="opacity:1;fill:#ffffff;fill-opacity:1;stroke:none;stroke-width:12.27959728;stroke-linecap:round;stroke-linejoin:round;stroke-miterlimit:4;stroke-dasharray:none;stroke-dashoffset:0;stroke-opacity:1;paint-order:markers stroke fill"
       d="m -455.33065,953.07845 c -14.23912,0 -25.7023,11.46318 -25.7023,25.7023 v 98.59555 c 0,14.2391 11.46318,25.7023 25.7023,25.7023 h 98.59552 c 14.23914,0 25.70232,-11.4632 25.70232,-25.7023 v -98.59555 c 0,-14.23912 -11.46318,-25.7023 -25.70232,-25.7023 z m 48.22703,17.6568 24.76955,0.12712 c 2.85819,0.0153 4.60891,3.14097 3.12902,5.58623 l -23.27714,38.4451 27.37506,-0.2986 c 2.93576,-0.03 4.72305,3.2205 3.12489,5.6833 l -41.24245,63.4727 c -2.40105,3.6866 -8.0764,0.8159 -6.52932,-3.3026 l 17.61133,-46.7755 h -34.85523 c -2.78312,-10e-5 -4.55911,-2.9701 -3.24218,-5.4219 l 29.87672,-55.57798 c 0.64465,-1.19901 1.89846,-1.94487 3.25975,-1.93787 z"
       id="rect1491"
       inkscape:connector-curvature="0" />
  </g>
</svg>
